<?xml version="1.0" standalone="no"?>
<!DOCTYPE svg PUBLIC "-//W3C//DTD SVG 20010904//EN"
 "http://www.w3.org/TR/2001/REC-SVG-20010904/DTD/svg10.dtd">
<svg version="1.0" xmlns="http://www.w3.org/2000/svg"
 width="400.000000pt" height="400.000000pt" viewBox="0 0 400.000000 400.000000"
 preserveAspectRatio="xMidYMid meet">
<metadata>
Created by potrace 1.14, written by Peter Selinger 2001-2017
</metadata>
<g transform="translate(0.000000,400.000000) scale(0.100000,-0.100000)"
fill="#000000" stroke="none">
<path d="M7 3992 c-9 -17 -6 -363 3 -357 14 8 13 -1 -3 -25 -10 -17 -9 -22 3
-30 9 -6 10 -10 3 -10 -10 0 -12 -392 -13 -1785 l0 -1785 2000 0 2000 0 0
2000 0 2000 -1995 0 c-1097 0 -1996 -4 -1998 -8z m57 -62 c-6 -5 -24 21 -24
34 0 6 6 1 14 -10 8 -10 12 -21 10 -24z m173 24 c-3 -3 -12 -4 -19 -1 -8 3 -5
6 6 6 11 1 17 -2 13 -5z m-188 -33 c12 -8 13 -12 1 -26 -10 -12 -16 -13 -24
-4 -8 8 -7 13 3 16 11 5 11 7 0 14 -8 5 -9 9 -4 9 6 0 16 -4 24 -9z"/>
</g>
</svg>
