<svg width="44" height="45" viewBox="0 0 44 45" fill="none" xmlns="http://www.w3.org/2000/svg">
<path d="M28.707 20.4707C28.0332 20.998 27.1836 21.6426 24.1953 23.8105C23.6094 24.25 22.5254 25.2168 21.5 25.2168C20.4453 25.2168 19.3906 24.25 18.7754 23.8105C15.7871 21.6426 14.9375 20.998 14.2637 20.4707C14.1465 20.3828 14 20.4707 14 20.6172V26.5938C14 27.3848 14.6152 28 15.4062 28H27.5938C28.3555 28 29 27.3848 29 26.5938V20.6172C29 20.4707 28.8242 20.3828 28.707 20.4707ZM21.5 24.25C22.1738 24.2793 23.1406 23.4004 23.6387 23.0488C27.5352 20.2363 27.8281 19.9727 28.707 19.2695C28.8828 19.1523 29 18.9473 29 18.7129V18.1562C29 17.3945 28.3555 16.75 27.5938 16.75H15.4062C14.6152 16.75 14 17.3945 14 18.1562V18.7129C14 18.9473 14.0879 19.1523 14.2637 19.2695C15.1426 19.9727 15.4355 20.2363 19.332 23.0488C19.8301 23.4004 20.7969 24.2793 21.5 24.25Z" fill="url(#paint0_linear)"/>
<line y1="1.47845" x2="44" y2="1.47845" stroke="#CFCFCF"/>
<line x1="43.5" y1="1" x2="43.5" y2="23" stroke="#CFCFCF"/>
<line y1="44.3784" x2="44" y2="44.3784" stroke="#CFCFCF"/>
<line x1="0.5" y1="44.9998" x2="0.508338" y2="22.9998" stroke="#CFCFCF"/>
<defs>
<linearGradient id="paint0_linear" x1="29" y1="10" x2="14" y2="10" gradientUnits="userSpaceOnUse">
<stop stop-color="#07A1FA"/>
<stop offset="1" stop-color="#F13F95"/>
</linearGradient>
</defs>
</svg>
