<svg width="44" height="45" viewBox="0 0 44 45" fill="none" xmlns="http://www.w3.org/2000/svg">
<path d="M21.0391 29.582C21.3027 29.9922 21.918 29.9922 22.1816 29.582C26.459 23.4297 27.25 22.7852 27.25 20.5C27.25 17.3945 24.7305 14.875 21.625 14.875C18.4902 14.875 16 17.3945 16 20.5C16 22.7852 16.7617 23.4297 21.0391 29.582ZM21.625 22.8438C20.3066 22.8438 19.2812 21.8184 19.2812 20.5C19.2812 19.2109 20.3066 18.1562 21.625 18.1562C22.9141 18.1562 23.9688 19.2109 23.9688 20.5C23.9688 21.8184 22.9141 22.8438 21.625 22.8438Z" fill="url(#paint0_linear)"/>
<line y1="1.47845" x2="44" y2="1.47845" stroke="#CFCFCF"/>
<line x1="43.5" y1="1" x2="43.5" y2="23" stroke="#CFCFCF"/>
<line y1="44.3784" x2="44" y2="44.3784" stroke="#CFCFCF"/>
<line x1="0.5" y1="44.9998" x2="0.508338" y2="22.9998" stroke="#CFCFCF"/>
<defs>
<linearGradient id="paint0_linear" x1="29.6635" y1="10" x2="16" y2="10" gradientUnits="userSpaceOnUse">
<stop stop-color="#07A1FA"/>
<stop offset="1" stop-color="#F13F95"/>
</linearGradient>
</defs>
</svg>
