<svg width="35" height="31" viewBox="0 0 35 31" fill="none" xmlns="http://www.w3.org/2000/svg">
<path d="M34.9363 3.79462C31.3556 6.33368 28.7188 8.77509 27.0261 11.1188C25.3334 13.3975 24.4871 15.611 24.4871 17.7595C24.4871 18.4105 24.7475 18.736 25.2683 18.736L27.4167 18.5407C29.435 18.5407 31.0626 19.0941 32.2996 20.2009C33.5365 21.2425 34.155 22.6748 34.155 24.4977C34.155 26.3207 33.504 27.8181 32.2019 28.9899C30.9649 30.1618 29.4024 30.7477 27.5144 30.7477C25.0404 30.7477 23.0222 29.8688 21.4597 28.111C19.8972 26.2881 19.116 23.8141 19.116 20.6891C19.116 17.0433 20.1902 13.6253 22.3386 10.4352C24.5522 7.18003 27.9376 3.98993 32.4949 0.864929L34.9363 3.79462ZM16.1863 3.79462C13.0613 5.74774 10.5222 8.02639 8.56909 10.6306C6.61597 13.2347 5.6394 15.611 5.6394 17.7595C5.6394 18.4105 5.89982 18.736 6.42065 18.736L8.47144 18.5407C10.5548 18.5407 12.2149 19.0941 13.4519 20.2009C14.6889 21.2425 15.3074 22.6748 15.3074 24.4977C15.3074 26.3207 14.6563 27.8181 13.3542 28.9899C12.1173 30.1618 10.5548 30.7477 8.66675 30.7477C6.19279 30.7477 4.17456 29.8688 2.61206 28.111C1.11466 26.2881 0.365967 23.8141 0.365967 20.6891C0.365967 17.0433 1.44019 13.6253 3.58862 10.4352C5.73706 7.18003 9.08993 3.98993 13.6472 0.864929L16.1863 3.79462Z" fill="url(#paint0_linear)"/>
<defs>
<linearGradient id="paint0_linear" x1="17.8948" y1="9.1579" x2="-2.36841" y2="9.1579" gradientUnits="userSpaceOnUse">
<stop stop-color="#07A1FA"/>
<stop offset="1" stop-color="#F13F95"/>
</linearGradient>
</defs>
</svg>
