<svg width="41" height="40" viewBox="0 0 41 40" fill="none" xmlns="http://www.w3.org/2000/svg">
<g opacity="0.35">
<line x1="1" y1="0.5" x2="41" y2="0.5" stroke="url(#paint0_linear)"/>
<line x1="40.5" x2="40.5" y2="20" stroke="white"/>
<line x1="1" y1="39.5" x2="41" y2="39.5" stroke="url(#paint1_linear)"/>
<line x1="1.49622" y1="39.9926" x2="1.5038" y2="19.9926" stroke="white"/>
</g>
<path d="M27.3438 17.75C27.9688 17.2812 28.5312 16.7188 28.9688 16.0625C28.4062 16.3125 27.75 16.5 27.0938 16.5625C27.7812 16.1562 28.2812 15.5312 28.5312 14.75C27.9062 15.125 27.1875 15.4062 26.4688 15.5625C25.8438 14.9062 25 14.5312 24.0625 14.5312C22.25 14.5312 20.7812 16 20.7812 17.8125C20.7812 18.0625 20.8125 18.3125 20.875 18.5625C18.1562 18.4062 15.7188 17.0938 14.0938 15.125C13.8125 15.5938 13.6562 16.1562 13.6562 16.7812C13.6562 17.9062 14.2188 18.9062 15.125 19.5C14.5938 19.4688 14.0625 19.3438 13.625 19.0938V19.125C13.625 20.7188 14.75 22.0312 16.25 22.3438C16 22.4062 15.6875 22.4688 15.4062 22.4688C15.1875 22.4688 15 22.4375 14.7812 22.4062C15.1875 23.7188 16.4062 24.6562 17.8438 24.6875C16.7188 25.5625 15.3125 26.0938 13.7812 26.0938C13.5 26.0938 13.25 26.0625 13 26.0312C14.4375 26.9688 16.1562 27.5 18.0312 27.5C24.0625 27.5 27.3438 22.5312 27.3438 18.1875C27.3438 18.0312 27.3438 17.9062 27.3438 17.75Z" fill="white"/>
<defs>
<linearGradient id="paint0_linear" x1="41" y1="1" x2="1" y2="1" gradientUnits="userSpaceOnUse">
<stop stop-color="white"/>
<stop offset="1" stop-color="white"/>
</linearGradient>
<linearGradient id="paint1_linear" x1="41" y1="40" x2="1" y2="40" gradientUnits="userSpaceOnUse">
<stop stop-color="white"/>
<stop offset="1" stop-color="white"/>
</linearGradient>
</defs>
</svg>
