<svg width="41" height="40" viewBox="0 0 41 40" fill="none" xmlns="http://www.w3.org/2000/svg">
<g opacity="0.35">
<line x1="1" y1="0.5" x2="41" y2="0.5" stroke="url(#paint0_linear)"/>
<line x1="40.5" x2="40.5" y2="20" stroke="white"/>
<line x1="1" y1="39.5" x2="41" y2="39.5" stroke="url(#paint1_linear)"/>
<line x1="1.49622" y1="39.9926" x2="1.5038" y2="19.9926" stroke="white"/>
</g>
<path d="M24.5938 22.4375C25.5938 21.7812 26.0625 21.4062 25.6562 20.5938C25.4375 20.1562 24.7812 19.7812 23.9688 20.4375C23.9688 20.4375 22.8125 21.3438 21 21.3438C19.1562 21.3438 18.0312 20.4375 18.0312 20.4375C17.1875 19.75 16.5625 20.1562 16.3125 20.5938C15.9375 21.4062 16.375 21.7812 17.375 22.4375C18.25 23 19.4375 23.2188 20.2188 23.2812L19.5625 23.9375C18.6562 24.8438 17.8125 25.7188 17.1875 26.3125C16.3125 27.1875 17.7188 28.5938 18.625 27.75L21 25.3438C21.9062 26.2812 22.7812 27.1562 23.375 27.75C24.25 28.625 25.6875 27.2188 24.8125 26.3125L22.4375 23.9375L21.7812 23.2812C22.5625 23.2188 23.7188 23 24.5938 22.4375ZM16.9375 16.0625C16.9375 18.3125 18.75 20.125 21 20.125C23.2188 20.125 25.0312 18.3125 25.0312 16.0625C25.0312 13.8125 23.2188 12 21 12C18.75 12 16.9375 13.8125 16.9375 16.0625ZM19 16.0625C19 14.9688 19.875 14.0625 21 14.0625C22.0938 14.0625 22.9688 14.9688 22.9688 16.0625C22.9688 17.1562 22.0938 18.0625 21 18.0625C19.875 18.0625 19 17.1562 19 16.0625Z" fill="white"/>
<defs>
<linearGradient id="paint0_linear" x1="41" y1="1" x2="1" y2="1" gradientUnits="userSpaceOnUse">
<stop stop-color="white"/>
<stop offset="1" stop-color="white"/>
</linearGradient>
<linearGradient id="paint1_linear" x1="41" y1="40" x2="1" y2="40" gradientUnits="userSpaceOnUse">
<stop stop-color="white"/>
<stop offset="1" stop-color="white"/>
</linearGradient>
</defs>
</svg>
