<svg width="41" height="40" viewBox="0 0 41 40" fill="none" xmlns="http://www.w3.org/2000/svg">
<g opacity="0.35">
<line x1="1" y1="0.5" x2="41" y2="0.5" stroke="url(#paint0_linear)"/>
<line x1="40.5" x2="40.5" y2="20" stroke="white"/>
<line x1="1" y1="39.5" x2="41" y2="39.5" stroke="url(#paint1_linear)"/>
<line x1="1.49622" y1="39.9926" x2="1.5038" y2="19.9926" stroke="white"/>
</g>
<path d="M29.0312 15.6875C29.125 15.3125 29.0312 15 28.4688 15H26.625C26.1562 15 25.9375 15.25 25.8125 15.5312C25.8125 15.5312 24.875 17.8125 23.5625 19.3125C23.125 19.7188 22.9375 19.875 22.6875 19.875C22.5938 19.875 22.4062 19.7188 22.4062 19.3438V15.6875C22.4062 15.2188 22.2812 15 21.875 15H19C18.6875 15 18.5312 15.2188 18.5312 15.4375C18.5312 15.875 19.1875 15.9688 19.25 17.2188V19.9375C19.25 20.5312 19.1562 20.6562 18.9062 20.6562C18.2812 20.6562 16.7812 18.3438 15.875 15.7188C15.6875 15.2188 15.5 15 15.0312 15H13.1875C12.6875 15 12.5625 15.25 12.5625 15.5312C12.5625 16.0312 13.1875 18.4375 15.4688 21.6562C17 23.8438 19.1562 25 21.0938 25C22.25 25 22.4062 24.75 22.4062 24.3125C22.4062 22.2188 22.3125 22 22.875 22C23.1562 22 23.625 22.1562 24.7188 23.2188C25.9688 24.4688 26.1875 25 26.875 25H28.7188C29.25 25 29.5 24.75 29.3438 24.2188C29 23.1562 26.6562 20.9062 26.5312 20.75C26.25 20.4062 26.3438 20.25 26.5312 19.9375C26.5312 19.9375 28.7812 16.75 29.0312 15.6875Z" fill="white"/>
<defs>
<linearGradient id="paint0_linear" x1="41" y1="1" x2="1" y2="1" gradientUnits="userSpaceOnUse">
<stop stop-color="white"/>
<stop offset="1" stop-color="white"/>
</linearGradient>
<linearGradient id="paint1_linear" x1="41" y1="40" x2="1" y2="40" gradientUnits="userSpaceOnUse">
<stop stop-color="white"/>
<stop offset="1" stop-color="white"/>
</linearGradient>
</defs>
</svg>
